<?xml version="1.0" encoding="UTF-8"?>
<svg width="3in" height="2.0589in" version="1.1" viewBox="0 0 76.2 52.295" xmlns="http://www.w3.org/2000/svg" xmlns:cc="http://creativecommons.org/ns#" xmlns:dc="http://purl.org/dc/elements/1.1/" xmlns:rdf="http://www.w3.org/1999/02/22-rdf-syntax-ns#" xmlns:xlink="http://www.w3.org/1999/xlink">
<defs>
<marker id="b" overflow="visible" orient="auto">
<path transform="scale(.6)" d="m8.7186 4.0337-10.926-4.0177 10.926-4.0177c-1.7455 2.3721-1.7354 5.6175-6e-7 8.0354z" fill="context-stroke" fill-rule="evenodd" stroke="context-stroke" stroke-linejoin="round" stroke-width=".625"/>
</marker>
<marker id="ab" overflow="visible" orient="auto">
<path transform="scale(-.6)" d="m8.7186 4.0337-10.926-4.0177 10.926-4.0177c-1.7455 2.3721-1.7354 5.6175-6e-7 8.0354z" fill="context-stroke" fill-rule="evenodd" stroke="context-stroke" stroke-linejoin="round" stroke-width=".625"/>
</marker>
<marker id="y" overflow="visible" orient="auto">
<path transform="scale(-.6)" d="m8.7186 4.0337-10.926-4.0177 10.926-4.0177c-1.7455 2.3721-1.7354 5.6175-6e-7 8.0354z" fill="context-stroke" fill-rule="evenodd" stroke="context-stroke" stroke-linejoin="round" stroke-width=".625"/>
</marker>
<marker id="aa" overflow="visible" orient="auto">
<path transform="scale(-.6)" d="m8.7186 4.0337-10.926-4.0177 10.926-4.0177c-1.7455 2.3721-1.7354 5.6175-6e-7 8.0354z" fill="context-stroke" fill-rule="evenodd" stroke="context-stroke" stroke-linejoin="round" stroke-width=".625"/>
</marker>
<marker id="x" overflow="visible" orient="auto">
<path transform="scale(-.6)" d="m8.7186 4.0337-10.926-4.0177 10.926-4.0177c-1.7455 2.3721-1.7354 5.6175-6e-7 8.0354z" fill="context-stroke" fill-rule="evenodd" stroke="context-stroke" stroke-linejoin="round" stroke-width=".625"/>
</marker>
<marker id="z" overflow="visible" orient="auto">
<path transform="scale(-.6)" d="m8.7186 4.0337-10.926-4.0177 10.926-4.0177c-1.7455 2.3721-1.7354 5.6175-6e-7 8.0354z" fill="context-stroke" fill-rule="evenodd" stroke="context-stroke" stroke-linejoin="round" stroke-width=".625"/>
</marker>
<marker id="v" overflow="visible" orient="auto">
<path transform="scale(-.6)" d="m8.7186 4.0337-10.926-4.0177 10.926-4.0177c-1.7455 2.3721-1.7354 5.6175-6e-7 8.0354z" fill="context-stroke" fill-rule="evenodd" stroke="context-stroke" stroke-linejoin="round" stroke-width=".625"/>
</marker>
<marker id="u" overflow="visible" orient="auto">
<path transform="scale(-.6)" d="m8.7186 4.0337-10.926-4.0177 10.926-4.0177c-1.7455 2.3721-1.7354 5.6175-6e-7 8.0354z" fill="context-stroke" fill-rule="evenodd" stroke="context-stroke" stroke-linejoin="round" stroke-width=".625"/>
</marker>
<marker id="w" overflow="visible" orient="auto">
<path transform="scale(-.6)" d="m8.7186 4.0337-10.926-4.0177 10.926-4.0177c-1.7455 2.3721-1.7354 5.6175-6e-7 8.0354z" fill="context-stroke" fill-rule="evenodd" stroke="context-stroke" stroke-linejoin="round" stroke-width=".625"/>
</marker>
<marker id="t" overflow="visible" orient="auto">
<path transform="scale(-.6)" d="m8.7186 4.0337-10.926-4.0177 10.926-4.0177c-1.7455 2.3721-1.7354 5.6175-6e-7 8.0354z" fill="context-stroke" fill-rule="evenodd" stroke="context-stroke" stroke-linejoin="round" stroke-width=".625"/>
</marker>
</defs>
<metadata>
<rdf:RDF>
<cc:Work rdf:about="">
<dc:format>image/svg+xml</dc:format>
<dc:type rdf:resource="http://purl.org/dc/dcmitype/StillImage"/>
</cc:Work>
</rdf:RDF>
</metadata>
<path d="m27.414 28.656v2.1145" fill="none" marker-end="url(#t)" stroke="#000" stroke-linecap="round" stroke-width=".26458"/>
<path d="m47.364 28.656v2.1145" fill="none" marker-end="url(#w)" stroke="#000" stroke-linecap="round" stroke-width=".26458"/>
<path d="m47.357 46.339 0.0015-0.76897" fill="none" stroke="#000" stroke-width=".26458px"/>
<path d="m42.301 48.455 0.01341-2.1154h10.101l-0.01339 2.1154" fill="none" marker-end="url(#y)" marker-start="url(#b)" stroke="#000" stroke-linejoin="round" stroke-width=".26458px"/>
<text x="84.058029" y="-32.120964" fill="#000000" font-family="Roboto" font-size="4.2333px" letter-spacing="0px" stroke-width=".26458" word-spacing="0px" style="font-feature-settings:normal;font-variant-caps:normal;font-variant-ligatures:normal;font-variant-numeric:normal;line-height:1.25" xml:space="preserve"><tspan x="84.058029" y="-32.120964" stroke-width=".26458"/></text>
<path d="m29.388 45.407 0.01402 2.836" fill="none" marker-end="url(#aa)" stroke="#000" stroke-linecap="round" stroke-linejoin="round" stroke-width=".26458"/>
<path d="m65.314 45.623-0.01069 2.6715" fill="none" marker-end="url(#z)" stroke="#000" stroke-linecap="round" stroke-linejoin="round" stroke-width=".26458"/>
<g transform="translate(-.00058409 -1.1687)" fill="none" stroke="#000" stroke-width=".26458px">
<path d="m19.389 19.247v0.99397"/>
<path d="m27.428 21.235v-0.99397h-17.23v0.99397" stroke-linejoin="round"/>
<path d="m47.374 21.235v-0.99397h18.972v0.99397" stroke-linejoin="round"/>
<path d="m56.86 20.241v-0.99397"/>
</g>
<path d="m10.197 30.786v-5.6927" fill="none" marker-start="url(#b)" stroke="#000" stroke-linecap="round" stroke-linejoin="round" stroke-width=".26458"/>
<path d="m66.343 28.656v2.1145" fill="none" marker-end="url(#x)" stroke="#000" stroke-linecap="round" stroke-width=".26458"/>
<g transform="translate(.74155 -1.039)">
<path d="m4.8555 33.219v1.6328h9.1992v-1.6328z" fill="none" xlink:href="#g"/>
<rect id="g" x="4.0457" y="32.409" width="10.82" height="3.2543" ry=".2374" fill="#0173b2" stroke="#0173b2" stroke-linecap="round" stroke-linejoin="round" stroke-width=".39687"/>
<text x="38.124287" y="2.5969615" fill="#ffffff" font-family="'Times New Roman'" font-size="1.7639px" letter-spacing="0px" stroke-width=".26458" text-align="center" word-spacing="0px" style="font-variant-caps:normal;font-variant-east-asian:normal;font-variant-ligatures:normal;font-variant-numeric:normal;line-height:1;shape-inside:url(#path19601-0-3);white-space:pre" xml:space="preserve"><tspan x="5.241293" y="34.563929">MAP-Elites</tspan></text>
</g>
<g transform="translate(1.3151 -2.9808)">
<path d="m26.463 52.633v1.6328h16.158v-1.6328z" fill="none" xlink:href="#e"/>
<rect id="e" x="25.653" y="51.822" width="17.778" height="3.2543" ry=".2374" fill="#0173b2" stroke="#0173b2" stroke-linecap="round" stroke-linejoin="round" stroke-width=".39687"/>
<text x="38.124287" y="2.5969615" fill="#ffffff" font-family="'Times New Roman'" font-size="1.7639px" letter-spacing="0px" stroke-width=".26458" text-align="center" word-spacing="0px" style="font-variant-caps:normal;font-variant-east-asian:normal;font-variant-ligatures:normal;font-variant-numeric:normal;line-height:1;shape-inside:url(#path19601-0-3-1);white-space:pre" xml:space="preserve"><tspan x="27.853766" y="53.977992">CMA-MEGA (ES)</tspan></text>
</g>
<g transform="translate(3.5899 -2.9671)">
<path d="m46.959 52.619v1.6328h20.215v-1.6328z" fill="none" xlink:href="#d"/>
<rect id="d" x="46.149" y="51.809" width="21.836" height="3.2543" ry=".2374" fill="#0173b2" stroke="#0173b2" stroke-linecap="round" stroke-linejoin="round" stroke-width=".39687"/>
<text x="38.124287" y="2.5969615" fill="#ffffff" font-family="'Times New Roman'" font-size="1.7639px" letter-spacing="0px" stroke-width=".26458" text-align="center" word-spacing="0px" style="font-variant-caps:normal;font-variant-east-asian:normal;font-variant-ligatures:normal;font-variant-numeric:normal;line-height:1;shape-inside:url(#path19601-0-3-1-9);white-space:pre" xml:space="preserve"><tspan x="48.320595" y="53.96432">CMA-MEGA (TD3, ES)</tspan></text>
</g>
<g transform="translate(-1.5215 -1.039)">
<path d="m63.268 33.219v1.6328h9.1992v-1.6328z" fill="none" xlink:href="#c"/>
<rect id="c" x="62.457" y="32.409" width="10.82" height="3.2543" ry=".2374" fill="#0173b2" stroke="#0173b2" stroke-linecap="round" stroke-linejoin="round" stroke-width=".39687"/>
<text x="38.124287" y="2.5969615" fill="#ffffff" font-family="'Times New Roman'" font-size="1.7639px" letter-spacing="0px" stroke-width=".26458" text-align="center" word-spacing="0px" style="font-variant-caps:normal;font-variant-east-asian:normal;font-variant-ligatures:normal;font-variant-numeric:normal;line-height:1;shape-inside:url(#path19601-0-3-9);white-space:pre" xml:space="preserve"><tspan x="65.221352" y="34.563929">ME-ES</tspan></text>
</g>
<g transform="translate(-1.9235 -1.039)">
<path d="m22.904 33.219v1.6328h12.871v-1.6328z" fill="none" xlink:href="#f"/>
<rect id="f" x="22.094" y="32.409" width="14.492" height="3.2543" ry=".2374" fill="#0173b2" stroke="#0173b2" stroke-linecap="round" stroke-linejoin="round" stroke-width=".39687"/>
<text x="38.124287" y="2.5969615" fill="#ffffff" font-family="'Times New Roman'" font-size="1.7639px" letter-spacing="0px" stroke-width=".26458" text-align="center" word-spacing="0px" style="font-variant-caps:normal;font-variant-east-asian:normal;font-variant-ligatures:normal;font-variant-numeric:normal;line-height:1;shape-inside:url(#path19601-0-3-5);white-space:pre" xml:space="preserve"><tspan x="23.068043" y="34.563929">PGA-MAP-Elites</tspan></text>
</g>
<g transform="translate(-.00058409 -1.1687)">
<path d="m9.9395 15.031v3.4043h18.9v-3.4043z" fill="none" xlink:href="#r"/>
<rect id="r" x="9.128" y="14.22" width="20.523" height="5.0268" ry=".3667" fill="#de8f05" stroke="#de8f05" stroke-linecap="round" stroke-linejoin="round" stroke-width=".39687"/>
<text x="38.124287" y="2.5969615" fill="#ffffff" font-family="'Times New Roman'" font-size="1.7639px" letter-spacing="0px" stroke-width=".26458" text-align="center" word-spacing="0px" style="font-variant-caps:normal;font-variant-east-asian:normal;font-variant-ligatures:normal;font-variant-numeric:normal;line-height:1;shape-inside:url(#path19601-7);white-space:pre" xml:space="preserve"><tspan x="10.156356" y="16.376429">How are archive solutions </tspan><tspan x="15.814068" y="18.140319">modified?</tspan></text>
<path d="m44.299 15.031v3.4043h25.033v-3.4043z" fill="none" xlink:href="#q"/>
<rect id="q" x="43.489" y="14.22" width="26.654" height="5.0268" ry=".3667" fill="#de8f05" stroke="#de8f05" stroke-linecap="round" stroke-linejoin="round" stroke-width=".39687"/>
<text x="38.124287" y="2.5969615" fill="#ffffff" font-family="'Times New Roman'" font-size="1.7639px" letter-spacing="0px" stroke-width=".26458" text-align="center" word-spacing="0px" style="font-variant-caps:normal;font-variant-east-asian:normal;font-variant-ligatures:normal;font-variant-numeric:normal;line-height:1;shape-inside:url(#path19601-7-1);white-space:pre" xml:space="preserve"><tspan x="44.521168" y="16.376429">How are gradients combined when </tspan><tspan x="47.606253" y="18.140319">generating new solutions?</tspan></text>
</g>
<g transform="translate(1.4991 -.97288)" fill="none" stroke="#000" stroke-width=".26458px">
<path d="m45.856 39.423v-1.9879"/>
<path d="m27.898 39.423v-0.99397l35.914 0.0431v0.99397" stroke-linejoin="round"/>
</g>
<g transform="translate(1.5106 -1.039)">
<path d="m39.121 33.219v3.4062h13.469v-3.4062z" fill="none" xlink:href="#p"/>
<rect id="p" x="38.31" y="32.409" width="15.091" height="5.0268" ry=".3667" fill="#de8f05" stroke="#de8f05" stroke-linecap="round" stroke-linejoin="round" stroke-width=".39687"/>
<text x="38.124287" y="2.5969615" fill="#ffffff" font-family="'Times New Roman'" font-size="1.7639px" letter-spacing="0px" stroke-width=".26458" text-align="center" word-spacing="0px" style="font-variant-caps:normal;font-variant-east-asian:normal;font-variant-ligatures:normal;font-variant-numeric:normal;line-height:1;shape-inside:url(#path19601-7-1-9);white-space:pre" xml:space="preserve"><tspan x="39.390312" y="34.563929">How are gradients </tspan><tspan x="40.615044" y="36.327819">approximated?</tspan></text>
</g>
<g transform="translate(.75675 -1.1687)">
<path d="m3 22.045v3.4062h12.881v-3.4062z" fill="none" xlink:href="#o"/>
<rect id="o" x="2.1893" y="21.235" width="14.503" height="5.0268" ry=".3667" fill="#029e73" stroke="#029e73" stroke-linecap="round" stroke-linejoin="round" stroke-width=".39687"/>
<text x="38.124287" y="2.5969615" fill="#ffffff" font-family="'Times New Roman'" font-size="1.7639px" letter-spacing="0px" stroke-width=".26458" text-align="center" word-spacing="0px" style="font-variant-caps:normal;font-variant-east-asian:normal;font-variant-ligatures:normal;font-variant-numeric:normal;line-height:1;shape-inside:url(#path19601-7-0);white-space:pre" xml:space="preserve"><tspan x="3.0484815" y="23.390101">Genetic algorithm </tspan><tspan x="6.502192" y="25.15399">operator</tspan></text>
</g>
<g transform="translate(-1.921 -1.1687)">
<path d="m24.021 22.045v6.9688h10.633v-6.9688z" fill="none" xlink:href="#n"/>
<rect id="n" x="23.212" y="21.235" width="12.252" height="8.5902" ry=".62665" fill="#029e73" stroke="#029e73" stroke-linecap="round" stroke-linejoin="round" stroke-width=".39687"/>
<text x="38.124287" y="2.5969615" fill="#ffffff" font-family="'Times New Roman'" font-size="1.7639px" letter-spacing="0px" stroke-width=".26458" text-align="center" word-spacing="0px" style="font-variant-caps:normal;font-variant-east-asian:normal;font-variant-ligatures:normal;font-variant-numeric:normal;line-height:1;shape-inside:url(#path19601-7-0-2);white-space:pre" xml:space="preserve"><tspan x="24.476858" y="23.390101">Take multiple </tspan><tspan x="24.317091" y="25.15399">small gradient </tspan><tspan x="25.149944" y="26.91788">ascent steps
</tspan><tspan x="25.728289" y="28.681769">with TD3.</tspan></text>
</g>
<g transform="translate(6.1223 -2.4823)">
<path d="m16.672 41.744v5.334h13.205v-5.334z" fill="none" xlink:href="#m"/>
<rect id="m" x="15.862" y="40.933" width="14.826" height="6.9566" ry=".50748" fill="#029e73" stroke="#029e73" stroke-linecap="round" stroke-linejoin="round" stroke-width=".39687"/>
<text x="38.124287" y="2.5969615" fill="#ffffff" font-family="'Times New Roman'" font-size="1.7639px" letter-spacing="0px" stroke-width=".26458" text-align="center" word-spacing="0px" style="font-variant-caps:normal;font-variant-east-asian:normal;font-variant-ligatures:normal;font-variant-numeric:normal;line-height:1;shape-inside:url(#path19601-7-0-2-4);white-space:pre" xml:space="preserve"><tspan x="18.620948" y="43.08932">Approximate </tspan><tspan x="16.931989" y="44.853209">objective gradient </tspan><tspan x="17.10166" y="46.617099">with OpenAI-ES.</tspan></text>
</g>
<g transform="translate(-3.0131 -2.4823)">
<path d="m61.723 41.744v5.334h13.205v-5.334z" fill="none" xlink:href="#l"/>
<rect id="l" x="60.912" y="40.933" width="14.826" height="6.9566" ry=".50748" fill="#029e73" stroke="#029e73" stroke-linecap="round" stroke-linejoin="round" stroke-width=".39687"/>
<text x="38.124287" y="2.5969615" fill="#ffffff" font-family="'Times New Roman'" font-size="1.7639px" letter-spacing="0px" stroke-width=".26458" text-align="center" word-spacing="0px" style="font-variant-caps:normal;font-variant-east-asian:normal;font-variant-ligatures:normal;font-variant-numeric:normal;line-height:1;shape-inside:url(#path19601-7-0-2-4-4);white-space:pre" xml:space="preserve"><tspan x="63.67173" y="43.08932">Approximate </tspan><tspan x="61.98277" y="44.853209">objective gradient </tspan><tspan x="64.715594" y="46.617099">with TD3.</tspan></text>
</g>
<g transform="translate(1.5546 -2.4981)">
<path d="m39.197 41.76v5.3359h13.205v-5.3359z" fill="none" xlink:href="#k"/>
<rect id="k" x="38.387" y="40.949" width="14.826" height="6.9566" ry=".50748" fill="#029e73" stroke="#029e73" stroke-linecap="round" stroke-linejoin="round" stroke-width=".39687"/>
<text x="38.124287" y="2.5969615" fill="#ffffff" font-family="'Times New Roman'" font-size="1.7639px" letter-spacing="0px" stroke-width=".26458" text-align="center" word-spacing="0px" style="font-variant-caps:normal;font-variant-east-asian:normal;font-variant-ligatures:normal;font-variant-numeric:normal;line-height:1;shape-inside:url(#path19601-7-0-2-4-8);white-space:pre" xml:space="preserve"><tspan x="41.146339" y="43.104945">Approximate </tspan><tspan x="39.408287" y="44.868834">measure gradients </tspan><tspan x="39.627051" y="46.632724">with OpenAI-ES.</tspan></text>
</g>
<g transform="translate(-.12934)">
<path d="m59.473 20.877v6.9688h14.006v-6.9688z" fill="none" xlink:href="#a"/>
<rect id="a" x="58.661" y="20.066" width="15.627" height="8.5902" ry=".62665" fill="#029e73" stroke="#029e73" stroke-linecap="round" stroke-linejoin="round" stroke-width=".39687"/>
<text x="38.124287" y="2.5969615" fill="#ffffff" font-family="'Times New Roman'" font-size="1.7639px" letter-spacing="0px" stroke-width=".26458" text-align="center" word-spacing="0px" style="font-variant-caps:normal;font-variant-east-asian:normal;font-variant-ligatures:normal;font-variant-numeric:normal;line-height:1;shape-inside:url(#path19601-7-0-2-1-6);white-space:pre" xml:space="preserve"><tspan x="60.268812" y="22.222132">Take an objective </tspan><tspan x="59.764966" y="23.986022">gradient or novelty </tspan><tspan x="60.156415" y="25.749911">gradient step with </tspan><tspan x="62.091268" y="27.5138">OpenAI-ES.</tspan></text>
</g>
<path d="m56.813 10.467v1.9853" fill="none" marker-end="url(#v)" stroke="#000" stroke-linecap="round" stroke-width=".26458"/>
<path d="m19.386 10.467v1.9853" fill="none" marker-end="url(#u)" stroke="#000" stroke-linecap="round" stroke-width=".26458"/>
<g transform="translate(-.00058328 -.50571)">
<path d="m19.387 5.9464v-0.99397h37.426v0.99397" fill="none" stroke="#000" stroke-linejoin="round" stroke-width=".26458px"/>
<path d="m38.1 4.9524v-0.99397" fill="none" stroke="#000" stroke-width=".26458px"/>
<path d="m9.9355 6.7578v3.4043h18.902v-3.4043z" fill="none" xlink:href="#s"/>
<rect id="s" x="9.1255" y="5.9464" width="20.523" height="5.0268" ry=".3667" fill="#029e73" stroke="#029e73" stroke-linecap="round" stroke-linejoin="round" stroke-width=".39687"/>
<text x="38.124287" y="2.5969615" fill="#ffffff" font-family="'Times New Roman'" font-size="1.7639px" letter-spacing="0px" stroke-width=".26458" text-align="center" word-spacing="0px" style="font-variant-caps:normal;font-variant-east-asian:normal;font-variant-ligatures:normal;font-variant-numeric:normal;line-height:1;shape-inside:url(#path19601);white-space:pre" xml:space="preserve"><tspan x="10.64263" y="8.1029918">Mutate solutions that are </tspan><tspan x="10.963024" y="9.8668821">currently in the archive.</tspan></text>
</g>
<g transform="translate(-.00058328 -.50571)">
<path d="m44.293 6.7578v3.4043h25.041v-3.4043z" fill="none" xlink:href="#i"/>
<rect id="i" x="43.482" y="5.9464" width="26.663" height="5.0268" ry=".3667" fill="#029e73" stroke="#029e73" stroke-linecap="round" stroke-linejoin="round" stroke-width=".39687"/>
<text x="38.124287" y="2.5969615" fill="#ffffff" font-family="'Times New Roman'" font-size="1.7639px" letter-spacing="0px" stroke-width=".26458" text-align="center" word-spacing="0px" style="font-variant-caps:normal;font-variant-east-asian:normal;font-variant-ligatures:normal;font-variant-numeric:normal;line-height:1;shape-inside:url(#path19601-8);white-space:pre" xml:space="preserve"><tspan x="46.012234" y="8.1029918">Maintain an evolution strategy </tspan><tspan x="47.655976" y="9.8668821">separate from the archive.</tspan></text>
</g>
<g transform="translate(-.00058328 -.50571)">
<path transform="translate(3.8147e-7 -.46796)" d="m26.402 1.5156v1.6328h23.396v-1.6328z" fill="none" xlink:href="#h"/>
<rect id="h" x="25.591" y=".70415" width="25.018" height="3.2543" ry=".2374" fill="#de8f05" stroke="#de8f05" stroke-linecap="round" stroke-linejoin="round" stroke-width=".39687"/>
<text transform="translate(-3.8147e-7 .46796)" x="38.124287" y="2.5969615" fill="#ffffff" font-family="'Times New Roman'" font-size="1.7639px" letter-spacing="0px" stroke-width=".26458" text-align="center" word-spacing="0px" style="font-variant-caps:normal;font-variant-east-asian:normal;font-variant-ligatures:normal;font-variant-numeric:normal;line-height:1;shape-inside:url(#path19601-0);white-space:pre" xml:space="preserve"><tspan x="27.643422" y="2.3920543">How are solutions generated?</tspan></text>
</g>
<path transform="translate(-10.201 1.4109)" d="m59.473 20.877v6.9688h14.006v-6.9688z" fill="none" xlink:href="#a"/>
<path transform="translate(2.1425 -3.766)" d="m40.361 21.055v6.9707h14.006v-6.9707z" fill="none" xlink:href="#j"/>
<path transform="translate(1.5111 .1788)" d="m39.584 20.877v6.9688h12.535v-6.9688z" fill="none" xlink:href="#rect4292-1-2-1-9-0-7"/>
<path transform="translate(4.3018 .50519)" d="m39.584 20.877v6.9688h12.535v-6.9688z" fill="none" xlink:href="#rect4292-1-2-1-9-0-7"/>
<g transform="translate(0 -.1788)">
<rect id="j" x="39.55" y="20.245" width="15.627" height="8.5902" ry=".62665" fill="#029e73" stroke="#029e73" stroke-linecap="round" stroke-linejoin="round" stroke-width=".39687"/>
<text transform="translate(-2.1425 3.766)" x="38.124287" y="2.5969615" fill="#ffffff" font-family="'Times New Roman'" font-size="1.7639px" letter-spacing="0px" stroke-width=".26458" text-align="center" word-spacing="0px" style="font-variant-caps:normal;font-variant-east-asian:normal;font-variant-ligatures:normal;font-variant-numeric:normal;line-height:1;shape-inside:url(#path19601-7-0-2-1-6-3);white-space:pre" xml:space="preserve"><tspan x="43.212642" y="18.634242">Maintain gradient </tspan><tspan x="43.620886" y="20.398131">coefficients with
</tspan><tspan x="45.56263" y="22.16202">a CMA-ES </tspan><tspan x="46.61726" y="23.92591">instance</tspan></text>
</g>
<path d="m10.197 27.265h6.9812v5.7321h2.4015" fill="none" marker-end="url(#ab)" stroke="#000" stroke-linejoin="round" stroke-width=".26458px"/>
</svg>
